<svg version="1" xmlns="http://www.w3.org/2000/svg" width="933.333" height="933.333" viewBox="0 0 700.000000 700.000000"><path d="M331.8 1.5c-.2.1-4.1.6-8.8.9-45.5 3.6-86.9 15.2-129.5 36.3-10.8 5.3-35.7 20.1-40 23.6-.5.4-5 3.7-10 7.3-17 12.4-40.5 33.9-55.6 51-29.2 32.9-54.6 77.3-69 120.6-6.3 18.9-12.6 46.4-14.4 62.3-.4 3.3-.9 6.8-1.1 7.8-2.4 13-2.4 69.9.1 79.7.2.8.6 4 1 7 .3 3 .7 6.2.9 7 .1.8.6 3.7 1 6.5.5 2.7 1.6 8.6 2.7 13 1 4.5 2 9.2 2.3 10.5 2 9.8 8.4 29.7 14.6 45.6 8.2 21 20.1 43.5 33.3 63.4 10.9 16.4 9.9 14.9 24.5 32.5 35.7 42.9 85.4 78.9 137.2 99.5 13.7 5.5 38.1 13.4 44.8 14.6 1.2.3 5.9 1.3 10.5 2.4 4.5 1 9.6 2.1 11.2 2.4 24.5 4 25.9 4.1 62 4.1 37.7 0 43.8-.4 61.9-3.6 79-14.2 146.9-52.1 201.4-112.4 10.2-11.3 28.5-36.1 37.3-50.6 7-11.5 17.5-31.9 23.4-45.3 4.7-10.7 15.3-42.1 17-50.6.2-.8 1-4.5 1.9-8.1 2.8-12.1 2.9-12.6 5.5-31.3 2.6-18.5 3-69.4.6-88.6-6.8-55.2-25.3-105.3-56.1-151.5C592.6 82.6 515.6 29.4 428.5 9.9c-4.9-1.1-10.3-2.3-12-2.5-1.6-.3-5.2-.9-8-1.4-8.2-1.6-9.7-1.8-18-2.5-4.4-.4-9.1-.9-10.5-1.2-2.7-.5-47.6-1.3-48.2-.8zM377 50.4c26.5 2.6 46.5 6.8 69.9 14.6 112.9 37.5 194.3 140.4 204.8 259 1.5 16 .8 54.8-1.1 66-.3 1.4-.7 3.8-.9 5.5-4.5 28.4-11.9 53.9-22.4 77.5-32.2 71.9-89.6 127.6-161.8 157.5-1.6.7-4.3 1.8-5.9 2.4-10.5 4.3-40 12.8-50.1 14.4-1.6.3-7.3 1.2-12.6 2.1-14.4 2.4-24.4 3.1-45.9 3.1-20.5 0-30.2-.7-45.3-3.1-5.1-.8-10.4-1.6-11.9-1.9-9.5-1.5-41-10.3-48.3-13.5-1.1-.5-6-2.5-11-4.5-21-8.5-50.1-25.6-69.5-40.9-52.5-41.3-90.5-99.6-106.4-163.1-2.6-10.6-5.4-24.3-6.2-31-.2-2.2-.7-5.4-.9-7-1-6.5-1.9-22.7-1.9-36.5 0-13.2 1.1-34.7 1.9-36 .2-.3.6-3.1.9-6.2.3-3.2 1.3-9.2 2.2-13.5.8-4.3 1.7-8.9 2-10.3 1.9-9.7 7.7-28.7 12.5-41.5 12.2-31.8 27.7-57.9 53.4-89.5 1.1-1.3 8.1-8.6 15.5-16 16.3-16.4 35.3-31.8 51-41.4 2.5-1.5 6.8-4.1 9.5-5.8 2.8-1.7 11.3-6.2 19-10 7.7-3.8 14.8-7.3 15.7-7.9 1-.5 2.3-.9 2.9-.9.6 0 2.5-.7 4.2-1.5 11.1-5.2 41.5-13.7 60.7-16.9 14-2.3 15.6-2.5 26-3.2 5.2-.4 9.6-.7 9.7-.8.6-.5 34.2.2 40.3.8z"/><path d="M273.9 144.6c-29.1 4.3-55 16.4-77 35.7-19.1 16.8-32.1 35.8-41.6 60.7-11.5 30.1-11.8 68.6-.8 100.2 3.2 9.1 10.3 24.6 12.8 27.8.7.8 1.8 2.6 2.6 4 5.5 10.1 23.6 29.6 35.6 38.4 28.3 20.9 58.7 30.7 93.3 30 6.4-.1 13.1-.4 14.7-.7 1.7-.3 5-.8 7.5-1.2 6.7-1 24.4-6.2 32.5-9.6 16.5-6.8 34.7-19.2 47.7-32.2 21-21.2 37-51.7 41.4-79.2.3-2 .8-4.7 1.1-5.9.9-3.6 1-35.9.2-38.6-.4-1.4-1-4.4-1.3-6.7-1.7-13.8-10.6-38.5-18.3-50.6-4.9-7.8-7.8-12.2-8.3-12.7-.3-.3-1.8-2.3-3.5-4.5-5-6.7-19.6-20.9-27.5-26.6-12.9-9.5-27.6-17.4-38.5-20.9-2.2-.7-4.4-1.5-5-1.9-.5-.3-1.4-.6-2-.7-.5-.1-3-.7-5.5-1.4-16.8-4.6-42.5-6.1-60.1-3.4zM517.9 276.2c-.1.2-.2 9.3-.4 20.3-.3 26.6-1.2 36.3-5.1 54.5-5.3 24.7-16.8 52-31.2 73.4-4.1 6.1-7.7 11.3-8 11.6-.4.3-2 2.3-3.7 4.5-4.9 6.6-20.4 22.3-29.8 30.2-16.8 14-38.3 26.8-59.2 35.1-9.1 3.6-30 9.7-36.5 10.7-2.5.4-4.7.8-5 1-.4.2-3.3.6-6.6 1-3.3.3-7.1.8-8.4 1.1-1.4.2-11 .6-21.3.9-10.4.2-19.1.6-19.4.9-.3.3-.6 17.5-.7 38.2l-.1 37.6 24-.5c13.2-.3 25.1-.8 26.5-1 1.4-.3 5.2-.8 8.5-1.2 4.8-.5 18.5-3.1 31.6-6 9.3-2 34.8-10.7 45.6-15.6 75-33.5 131.1-93.9 158.7-170.7 5.1-14.2 11.2-38.7 13.1-52.7.8-6.6 1.8-13.4 2.1-15 .3-1.7.8-15.5 1.1-30.8l.6-27.7h-38.2c-20.9 0-38.1.1-38.2.2z"/></svg>