<?xml version="1.0" encoding="UTF-8" standalone="no"?>
<!DOCTYPE svg PUBLIC "-//W3C//DTD SVG 1.1//EN" "http://www.w3.org/Graphics/SVG/1.1/DTD/svg11.dtd">
<svg version="1.1" xmlns="http://www.w3.org/2000/svg" xmlns:xlink="http://www.w3.org/1999/xlink" preserveAspectRatio="xMidYMid meet" viewBox="0 0 640 640" width="640" height="640"><defs><path d="M619.05 321.05C619.05 485.52 485.52 619.05 321.05 619.05C156.58 619.05 23.05 485.52 23.05 321.05C23.05 156.58 156.58 23.05 321.05 23.05C485.52 23.05 619.05 156.58 619.05 321.05Z" id="d6bLDnQg"></path><path d="M406.32 267.25C406.32 342.4 345.31 403.41 270.16 403.41C195.02 403.41 134.01 342.4 134.01 267.25C134.01 192.11 195.02 131.1 270.16 131.1C345.31 131.1 406.32 192.11 406.32 267.25Z" id="cA2z0EnGk"></path><path d="M508.1 252.33C508.1 266.54 508.1 275.42 508.1 278.97C508.1 407.12 404.21 511.01 276.06 511.01C273.71 511.01 267.86 511.01 258.48 511.01" id="a2i5Dx9DPH"></path></defs><g><g><g><g><use xlink:href="#d6bLDnQg" opacity="1" fill-opacity="0" stroke="#000000" stroke-width="44" stroke-opacity="1"></use></g></g><g><use xlink:href="#cA2z0EnGk" opacity="1" fill="#000000" fill-opacity="1"></use><g><use xlink:href="#cA2z0EnGk" opacity="1" fill-opacity="0" stroke="#000000" stroke-width="1" stroke-opacity="1"></use></g></g><g><g><use xlink:href="#a2i5Dx9DPH" opacity="1" fill-opacity="0" stroke="#000000" stroke-width="70" stroke-opacity="1"></use></g></g></g></g></svg>